<svg xmlns="http://www.w3.org/2000/svg" xmlns:xlink="http://www.w3.org/1999/xlink" width="209.18" height="74.74" viewBox="0 0 209.18 74.74">
  <defs>
    <style>
      .a {
        fill: none;
      }

      .b {
        clip-path: url(#a);
      }

      .c {
        fill: #eb008b;
      }

      .d {
        fill: #fff100;
      }

      .e {
        fill: #f48120;
      }

      .f {
        fill: #fff;
      }
    </style>
    <clipPath id="a" transform="translate(-59.42 -11.75)">
      <rect class="a" width="334.97" height="116.06"/>
    </clipPath>
  </defs>
  <title>Asset 7</title>
  <g>
    <g class="b">
      <path class="c" d="M189,11.75a19.16,19.16,0,1,0,19.16,19.16A19.16,19.16,0,0,0,189,11.75" transform="translate(-59.42 -11.75)"/>
      <path class="d" d="M126.67,33.64a12.6,12.6,0,1,0,12.59,12.59,12.6,12.6,0,0,0-12.59-12.59" transform="translate(-59.42 -11.75)"/>
      <path class="e" d="M154.56,22.86a15.3,15.3,0,1,0,15.29,15.3,15.29,15.29,0,0,0-15.29-15.3" transform="translate(-59.42 -11.75)"/>
    </g>
    <g>
      <path class="f" d="M62.61,86H59.42V54.61h9.21a19.16,19.16,0,0,1,4.27.45,9.64,9.64,0,0,1,3.41,1.43,6.82,6.82,0,0,1,2.23,2.59,8.72,8.72,0,0,1,.8,3.9,7.79,7.79,0,0,1-.62,3.14A7.57,7.57,0,0,1,77,68.58a8.05,8.05,0,0,1-2.53,1.66,11.08,11.08,0,0,1-3.18.8L80.49,86H76.6L67.92,71.3H62.61Zm0-17.4h5.53a10.61,10.61,0,0,0,5.93-1.4A4.69,4.69,0,0,0,76.15,63a5.47,5.47,0,0,0-.57-2.61A4.75,4.75,0,0,0,74,58.64a7.14,7.14,0,0,0-2.48-1,15.33,15.33,0,0,0-3.23-.31H62.61Z" transform="translate(-59.42 -11.75)"/>
      <path class="f" d="M104.13,75v.66a6.51,6.51,0,0,1,0,.75H86.91a8.21,8.21,0,0,0,.62,2.93,7.35,7.35,0,0,0,1.59,2.39,7.74,7.74,0,0,0,2.39,1.61,7.93,7.93,0,0,0,7-.48,8.1,8.1,0,0,0,2.59-2.51l2.26,1.78a11.29,11.29,0,0,1-4.1,3.36,11.42,11.42,0,0,1-4.8,1,11.12,11.12,0,0,1-4.27-.82,10.13,10.13,0,0,1-3.39-2.28,10.9,10.9,0,0,1-2.23-3.45,11.26,11.26,0,0,1-.82-4.34,11.59,11.59,0,0,1,.79-4.34,10.5,10.5,0,0,1,2.22-3.45,9.94,9.94,0,0,1,3.32-2.28,10.23,10.23,0,0,1,4.11-.82,10.51,10.51,0,0,1,4.3.82,8.8,8.8,0,0,1,3.1,2.21A9.63,9.63,0,0,1,103.49,71,12.09,12.09,0,0,1,104.13,75Zm-3-1a7.49,7.49,0,0,0-1.88-4.84,6.39,6.39,0,0,0-5-1.93,6.9,6.9,0,0,0-2.78.55,7.46,7.46,0,0,0-2.26,1.51,7.37,7.37,0,0,0-1.55,2.17A6.89,6.89,0,0,0,87,74Z" transform="translate(-59.42 -11.75)"/>
      <path class="f" d="M125.51,70a5.72,5.72,0,0,0-2.19-2,6.55,6.55,0,0,0-3.12-.77,8.15,8.15,0,0,0-3.27.64,7.51,7.51,0,0,0-2.51,1.77,7.92,7.92,0,0,0-1.59,2.66,9.6,9.6,0,0,0-.55,3.3,9.35,9.35,0,0,0,.55,3.27,8,8,0,0,0,1.57,2.64,7.29,7.29,0,0,0,2.48,1.77,8,8,0,0,0,3.28.64,6.9,6.9,0,0,0,3.36-.75,6.79,6.79,0,0,0,2.26-2L128,82.9a9.91,9.91,0,0,1-3.26,2.61,10.1,10.1,0,0,1-4.62,1,12.19,12.19,0,0,1-4.56-.82,10.22,10.22,0,0,1-3.48-2.28,10.41,10.41,0,0,1-2.23-3.45,12.17,12.17,0,0,1,0-8.68,10.21,10.21,0,0,1,2.23-3.45,9.93,9.93,0,0,1,3.48-2.28,12,12,0,0,1,4.56-.82,10.87,10.87,0,0,1,4.22.9,8.32,8.32,0,0,1,3.48,2.68Z" transform="translate(-59.42 -11.75)"/>
      <path class="f" d="M132.69,67.63c0-.89-.08-1.68-.14-2.39h2.88c.06.56.1,1.18.13,1.86s.05,1.24.05,1.68h.09a7.32,7.32,0,0,1,6.64-4.07c.38,0,.73,0,1,0a5.65,5.65,0,0,1,1,.18l-.4,2.88a5.57,5.57,0,0,0-.89-.18,8.52,8.52,0,0,0-1.24-.09,6.27,6.27,0,0,0-2.3.44,4.94,4.94,0,0,0-1.92,1.39,7.41,7.41,0,0,0-1.33,2.43,11,11,0,0,0-.51,3.56V86h-3V69.8C132.73,69.24,132.71,68.51,132.69,67.63Z" transform="translate(-59.42 -11.75)"/>
      <path class="f" d="M163.72,86c-.06-.56-.1-1.18-.13-1.86s-.05-1.24-.05-1.69h-.09a6.79,6.79,0,0,1-2.87,3,8.44,8.44,0,0,1-4.21,1.13q-3.94,0-5.91-2.35a9.33,9.33,0,0,1-2-6.2V65.24h3V76.7a15,15,0,0,0,.27,3,6,6,0,0,0,.9,2.28,4.3,4.3,0,0,0,1.73,1.48,6.08,6.08,0,0,0,2.72.53,5.93,5.93,0,0,0,2.33-.48,5.73,5.73,0,0,0,2-1.49,7.45,7.45,0,0,0,1.42-2.52,11.12,11.12,0,0,0,.53-3.61V65.24h3V81.4c0,.56,0,1.28,0,2.17s.08,1.68.14,2.39Z" transform="translate(-59.42 -11.75)"/>
      <path class="f" d="M178.06,57.27a2,2,0,0,1-.66,1.53,2.1,2.1,0,0,1-2.92,0,2.08,2.08,0,0,1,0-3.06,2.08,2.08,0,0,1,2.92,0A2,2,0,0,1,178.06,57.27ZM177.44,86h-3V65.24h3Z" transform="translate(-59.42 -11.75)"/>
      <path class="f" d="M194.8,67.76H189V79.85a7.18,7.18,0,0,0,.22,1.9,2.74,2.74,0,0,0,.65,1.17,2.17,2.17,0,0,0,1,.58,5,5,0,0,0,1.24.16,5.21,5.21,0,0,0,1.31-.18,6.56,6.56,0,0,0,1.3-.49l.14,2.61a9.52,9.52,0,0,1-1.66.47,11.11,11.11,0,0,1-1.88.15,7.53,7.53,0,0,1-1.78-.22,4.52,4.52,0,0,1-1.72-.84,4.58,4.58,0,0,1-1.31-1.68,6.5,6.5,0,0,1-.51-2.79V67.76h-4.29V65.24h4.29V59.39h3v5.85h5.85Z" transform="translate(-59.42 -11.75)"/>
    </g>
    <g>
      <path class="f" d="M226.19,80.56h0l10.49-25.95h4.87V86h-3.18V58.73h-.09L227,86H225.3L214,58.73h-.09V86h-3.19V54.61h4.87Z" transform="translate(-59.42 -11.75)"/>
      <path class="f" d="M268.6,75v.66a6.59,6.59,0,0,1-.05.75H251.38a7.8,7.8,0,0,0,.62,2.93,7.35,7.35,0,0,0,1.59,2.39A7.62,7.62,0,0,0,256,83.32a7.3,7.3,0,0,0,3,.6A7.42,7.42,0,0,0,263,82.84a8.2,8.2,0,0,0,2.59-2.51l2.25,1.78a11.26,11.26,0,0,1-4.09,3.36,11.42,11.42,0,0,1-4.8,1,11.17,11.17,0,0,1-4.28-.82,10.08,10.08,0,0,1-3.38-2.28,10.93,10.93,0,0,1-2.24-3.45,11.44,11.44,0,0,1-.82-4.34,11.6,11.6,0,0,1,.8-4.34,10.47,10.47,0,0,1,2.21-3.45,10,10,0,0,1,3.32-2.28,10.24,10.24,0,0,1,4.12-.82,10.49,10.49,0,0,1,4.29.82,8.71,8.71,0,0,1,3.1,2.21A9.31,9.31,0,0,1,268,71,12.1,12.1,0,0,1,268.6,75Zm-3.06-1a7.44,7.44,0,0,0-1.88-4.84,6.38,6.38,0,0,0-5-1.93,7,7,0,0,0-2.79.55,7.46,7.46,0,0,0-2.26,1.51,7.56,7.56,0,0,0-1.55,2.17,7.08,7.08,0,0,0-.66,2.54Z" transform="translate(-59.42 -11.75)"/>
    </g>
  </g>
</svg>
